<svg width="160" height="160" fill="none" xmlns="http://www.w3.org/2000/svg"><path fill="#fff" d="M55.172 0h5.517v5.517h-5.517zM82.759 0h5.517v5.517h-5.517zM88.276 0h5.517v5.517h-5.517zM99.31 0h5.517v5.517H99.31zM44.138 5.517h5.517v5.517h-5.517zM49.655 5.517h5.517v5.517h-5.517zM60.69 5.517h5.517v5.517H60.69zM66.207 5.517h5.517v5.517h-5.517zM71.724 5.517h5.517v5.517h-5.517zM77.241 5.517h5.517v5.517h-5.517zM88.276 5.517h5.517v5.517h-5.517zM93.793 5.517h5.517v5.517h-5.517zM110.345 5.517h5.517v5.517h-5.517zM44.138 11.034h5.517v5.517h-5.517zM49.655 11.034h5.517v5.517h-5.517z"/><path fill="#fff" d="M55.172 11.034h5.517v5.517h-5.517zM66.207 11.034h5.517v5.517h-5.517zM71.724 11.034h5.517v5.517h-5.517zM82.759 11.034h5.517v5.517h-5.517zM99.31 11.034h5.517v5.517H99.31zM110.345 11.034h5.517v5.517h-5.517zM44.138 16.552h5.517v5.517h-5.517zM49.655 16.552h5.517v5.517h-5.517zM60.69 16.552h5.517v5.517H60.69zM88.276 16.552h5.517v5.517h-5.517zM93.793 16.552h5.517v5.517h-5.517zM110.345 16.552h5.517v5.517h-5.517zM49.655 22.069h5.517v5.517h-5.517zM82.759 22.069h5.517v5.517h-5.517zM88.276 22.069h5.517v5.517h-5.517zM104.828 22.069h5.517v5.517h-5.517zM110.345 22.069h5.517v5.517h-5.517zM49.655 27.586h5.517v5.517h-5.517zM66.207 27.586h5.517v5.517h-5.517zM82.759 27.586h5.517v5.517h-5.517zM110.345 27.586h5.517v5.517h-5.517zM44.138 33.103h5.517v5.517h-5.517zM55.172 33.103h5.517v5.517h-5.517zM66.207 33.103h5.517v5.517h-5.517zM77.241 33.103h5.517v5.517h-5.517zM88.276 33.103h5.517v5.517h-5.517zM99.31 33.103h5.517v5.517H99.31zM110.345 33.103h5.517v5.517h-5.517zM44.138 38.621h5.517v5.517h-5.517zM60.69 38.621h5.517v5.517H60.69zM77.241 38.621h5.517v5.517h-5.517zM82.759 38.621h5.517v5.517h-5.517zM88.276 38.621h5.517v5.517h-5.517zM99.31 38.621h5.517v5.517H99.31zM110.345 38.621h5.517v5.517h-5.517zM0 44.138h5.517v5.517H0zM33.103 44.138h5.517v5.517h-5.517z"/><path fill="#fff" d="M44.138 44.138h5.517v5.517h-5.517zM55.172 44.138h5.517v5.517h-5.517zM88.276 44.138h5.517v5.517h-5.517zM93.793 44.138h5.517v5.517h-5.517zM104.828 44.138h5.517v5.517h-5.517zM115.862 44.138h5.517v5.517h-5.517zM121.379 44.138h5.517v5.517h-5.517zM137.931 44.138h5.517v5.517h-5.517zM143.448 44.138h5.517v5.517h-5.517zM148.966 44.138h5.517v5.517h-5.517zM0 49.655h5.517v5.517H0zM11.034 49.655h5.517v5.517h-5.517zM27.586 49.655h5.517v5.517h-5.517zM71.724 49.655h5.517v5.517h-5.517zM88.276 49.655h5.517v5.517h-5.517zM93.793 49.655h5.517v5.517h-5.517zM99.31 49.655h5.517v5.517H99.31zM104.828 49.655h5.517v5.517h-5.517zM126.897 49.655h5.517v5.517h-5.517z"/><path fill="#fff" d="M132.414 49.655h5.517v5.517h-5.517zM143.448 49.655h5.517v5.517h-5.517zM148.966 49.655h5.517v5.517h-5.517zM5.517 55.172h5.517v5.517H5.517zM11.034 55.172h5.517v5.517h-5.517zM16.552 55.172h5.517v5.517h-5.517zM22.069 55.172h5.517v5.517h-5.517zM33.103 55.172h5.517v5.517h-5.517zM38.621 55.172h5.517v5.517h-5.517z"/><path fill="#fff" d="M44.138 55.172h5.517v5.517h-5.517zM49.655 55.172h5.517v5.517h-5.517zM66.207 55.172h5.517v5.517h-5.517zM71.724 55.172h5.517v5.517h-5.517zM77.241 55.172h5.517v5.517h-5.517zM82.759 55.172h5.517v5.517h-5.517zM88.276 55.172h5.517v5.517h-5.517zM93.793 55.172h5.517v5.517h-5.517zM0 60.69h5.517v5.517H0zM11.034 60.69h5.517v5.517h-5.517zM27.586 60.69h5.517v5.517h-5.517zM38.621 60.69h5.517v5.517h-5.517z"/><path fill="#fff" d="M44.138 60.69h5.517v5.517h-5.517zM49.655 60.69h5.517v5.517h-5.517z"/><path fill="#fff" d="M55.172 60.69h5.517v5.517h-5.517zM66.207 60.69h5.517v5.517h-5.517zM71.724 60.69h5.517v5.517h-5.517zM110.345 60.69h5.517v5.517h-5.517zM121.379 60.69h5.517v5.517h-5.517zM126.897 60.69h5.517v5.517h-5.517zM137.931 60.69h5.517v5.517h-5.517zM5.517 66.207h5.517v5.517H5.517zM27.586 66.207h5.517v5.517h-5.517zM33.103 66.207h5.517v5.517h-5.517zM44.138 66.207h5.517v5.517h-5.517zM55.172 66.207h5.517v5.517h-5.517zM71.724 66.207h5.517v5.517h-5.517zM82.759 66.207h5.517v5.517h-5.517zM88.276 66.207h5.517v5.517h-5.517zM104.828 66.207h5.517v5.517h-5.517zM110.345 66.207h5.517v5.517h-5.517zM121.379 66.207h5.517v5.517h-5.517zM126.897 66.207h5.517v5.517h-5.517zM154.483 66.207H160v5.517h-5.517zM11.034 71.724h5.517v5.517h-5.517zM22.069 71.724h5.517v5.517h-5.517zM38.621 71.724h5.517v5.517h-5.517zM49.655 71.724h5.517v5.517h-5.517z"/><path fill="#fff" d="M55.172 71.724h5.517v5.517h-5.517zM88.276 71.724h5.517v5.517h-5.517zM104.828 71.724h5.517v5.517h-5.517zM110.345 71.724h5.517v5.517h-5.517zM115.862 71.724h5.517v5.517h-5.517zM121.379 71.724h5.517v5.517h-5.517zM132.414 71.724h5.517v5.517h-5.517zM148.966 71.724h5.517v5.517h-5.517zM154.483 71.724H160v5.517h-5.517zM0 77.241h5.517v5.517H0zM5.517 77.241h5.517v5.517H5.517zM22.069 77.241h5.517v5.517h-5.517zM33.103 77.241h5.517v5.517h-5.517zM44.138 77.241h5.517v5.517h-5.517zM49.655 77.241h5.517v5.517h-5.517zM93.793 77.241h5.517v5.517h-5.517zM99.31 77.241h5.517v5.517H99.31zM115.862 77.241h5.517v5.517h-5.517zM126.897 77.241h5.517v5.517h-5.517zM137.931 77.241h5.517v5.517h-5.517zM143.448 77.241h5.517v5.517h-5.517zM44.138 82.759h5.517v5.517h-5.517zM49.655 82.759h5.517v5.517h-5.517z"/><path fill="#fff" d="M55.172 82.759h5.517v5.517h-5.517zM82.759 82.759h5.517v5.517h-5.517zM99.31 82.759h5.517v5.517H99.31zM104.828 82.759h5.517v5.517h-5.517zM126.897 82.759h5.517v5.517h-5.517z"/><path fill="#fff" d="M132.414 82.759h5.517v5.517h-5.517zM143.448 82.759h5.517v5.517h-5.517zM154.483 82.759H160v5.517h-5.517zM0 88.276h5.517v5.517H0zM22.069 88.276h5.517v5.517h-5.517zM27.586 88.276h5.517v5.517h-5.517zM33.103 88.276h5.517v5.517h-5.517zM60.69 88.276h5.517v5.517H60.69zM88.276 88.276h5.517v5.517h-5.517zM93.793 88.276h5.517v5.517h-5.517zM99.31 88.276h5.517v5.517H99.31zM104.828 88.276h5.517v5.517h-5.517zM126.897 88.276h5.517v5.517h-5.517zM137.931 88.276h5.517v5.517h-5.517zM143.448 88.276h5.517v5.517h-5.517zM0 93.793h5.517v5.517H0zM38.621 93.793h5.517v5.517h-5.517z"/><path fill="#fff" d="M44.138 93.793h5.517v5.517h-5.517zM49.655 93.793h5.517v5.517h-5.517zM60.69 93.793h5.517v5.517H60.69zM71.724 93.793h5.517v5.517h-5.517zM77.241 93.793h5.517v5.517h-5.517zM93.793 93.793h5.517v5.517h-5.517zM99.31 93.793h5.517v5.517H99.31zM104.828 93.793h5.517v5.517h-5.517zM110.345 93.793h5.517v5.517h-5.517zM121.379 93.793h5.517v5.517h-5.517zM126.897 93.793h5.517v5.517h-5.517z"/><path fill="#fff" d="M132.414 93.793h5.517v5.517h-5.517zM143.448 93.793h5.517v5.517h-5.517zM148.966 93.793h5.517v5.517h-5.517zM154.483 93.793H160v5.517h-5.517zM0 99.31h5.517v5.517H0zM5.517 99.31h5.517v5.517H5.517zM16.552 99.31h5.517v5.517h-5.517zM22.069 99.31h5.517v5.517h-5.517zM27.586 99.31h5.517v5.517h-5.517zM33.103 99.31h5.517v5.517h-5.517zM44.138 99.31h5.517v5.517h-5.517zM49.655 99.31h5.517v5.517h-5.517zM60.69 99.31h5.517v5.517H60.69zM82.759 99.31h5.517v5.517h-5.517zM104.828 99.31h5.517v5.517h-5.517zM137.931 99.31h5.517v5.517h-5.517zM154.483 99.31H160v5.517h-5.517zM0 104.828h5.517v5.517H0zM11.034 104.828h5.517v5.517h-5.517zM16.552 104.828h5.517v5.517h-5.517zM27.586 104.828h5.517v5.517h-5.517zM49.655 104.828h5.517v5.517h-5.517z"/><path fill="#fff" d="M55.172 104.828h5.517v5.517h-5.517zM66.207 104.828h5.517v5.517h-5.517zM71.724 104.828h5.517v5.517h-5.517zM99.31 104.828h5.517v5.517H99.31zM110.345 104.828h5.517v5.517h-5.517zM115.862 104.828h5.517v5.517h-5.517zM121.379 104.828h5.517v5.517h-5.517zM126.897 104.828h5.517v5.517h-5.517z"/><path fill="#fff" d="M132.414 104.828h5.517v5.517h-5.517zM0 110.345h5.517v5.517H0zM22.069 110.345h5.517v5.517h-5.517zM33.103 110.345h5.517v5.517h-5.517zM38.621 110.345h5.517v5.517h-5.517zM49.655 110.345h5.517v5.517h-5.517zM60.69 110.345h5.517v5.517H60.69zM77.241 110.345h5.517v5.517h-5.517zM82.759 110.345h5.517v5.517h-5.517zM93.793 110.345h5.517v5.517h-5.517zM110.345 110.345h5.517v5.517h-5.517zM115.862 110.345h5.517v5.517h-5.517zM121.379 110.345h5.517v5.517h-5.517zM126.897 110.345h5.517v5.517h-5.517z"/><path fill="#fff" d="M132.414 110.345h5.517v5.517h-5.517zM143.448 110.345h5.517v5.517h-5.517zM148.966 110.345h5.517v5.517h-5.517zM154.483 110.345H160v5.517h-5.517zM44.138 115.862h5.517v5.517h-5.517zM49.655 115.862h5.517v5.517h-5.517z"/><path fill="#fff" d="M55.172 115.862h5.517v5.517h-5.517zM77.241 115.862h5.517v5.517h-5.517zM93.793 115.862h5.517v5.517h-5.517zM99.31 115.862h5.517v5.517H99.31zM110.345 115.862h5.517v5.517h-5.517zM132.414 115.862h5.517v5.517h-5.517zM137.931 115.862h5.517v5.517h-5.517zM66.207 121.379h5.517v5.517h-5.517zM99.31 121.379h5.517v5.517H99.31zM104.828 121.379h5.517v5.517h-5.517zM110.345 121.379h5.517v5.517h-5.517zM121.379 121.379h5.517v5.517h-5.517zM132.414 121.379h5.517v5.517h-5.517zM137.931 121.379h5.517v5.517h-5.517zM143.448 121.379h5.517v5.517h-5.517zM55.172 126.897h5.517v5.517h-5.517zM60.69 126.897h5.517v5.517H60.69zM77.241 126.897h5.517v5.517h-5.517zM82.759 126.897h5.517v5.517h-5.517zM88.276 126.897h5.517v5.517h-5.517zM104.828 126.897h5.517v5.517h-5.517zM110.345 126.897h5.517v5.517h-5.517zM132.414 126.897h5.517v5.517h-5.517zM154.483 126.897H160v5.517h-5.517zM66.207 132.414h5.517v5.517h-5.517zM71.724 132.414h5.517v5.517h-5.517z"/><path fill="#fff" d="M77.241 132.414h5.517v5.517h-5.517zM88.276 132.414h5.517v5.517h-5.517zM104.828 132.414h5.517v5.517h-5.517zM110.345 132.414h5.517v5.517h-5.517zM115.862 132.414h5.517v5.517h-5.517zM121.379 132.414h5.517v5.517h-5.517zM126.897 132.414h5.517v5.517h-5.517z"/><path fill="#fff" d="M132.414 132.414h5.517v5.517h-5.517zM137.931 132.414h5.517v5.517h-5.517zM49.655 137.931h5.517v5.517h-5.517z"/><path fill="#fff" d="M55.172 137.931h5.517v5.517h-5.517zM60.69 137.931h5.517v5.517H60.69zM71.724 137.931h5.517v5.517h-5.517zM77.241 137.931h5.517v5.517h-5.517zM93.793 137.931h5.517v5.517h-5.517zM99.31 137.931h5.517v5.517H99.31zM115.862 137.931h5.517v5.517h-5.517zM126.897 137.931h5.517v5.517h-5.517zM137.931 137.931h5.517v5.517h-5.517zM143.448 137.931h5.517v5.517h-5.517zM148.966 137.931h5.517v5.517h-5.517zM49.655 143.448h5.517v5.517h-5.517z"/><path fill="#fff" d="M55.172 143.448h5.517v5.517h-5.517zM82.759 143.448h5.517v5.517h-5.517zM88.276 143.448h5.517v5.517h-5.517zM93.793 143.448h5.517v5.517h-5.517zM104.828 143.448h5.517v5.517h-5.517zM115.862 143.448h5.517v5.517h-5.517zM121.379 143.448h5.517v5.517h-5.517zM126.897 143.448h5.517v5.517h-5.517z"/><path fill="#fff" d="M132.414 143.448h5.517v5.517h-5.517zM137.931 143.448h5.517v5.517h-5.517zM143.448 143.448h5.517v5.517h-5.517zM148.966 143.448h5.517v5.517h-5.517zM66.207 148.966h5.517v5.517h-5.517zM82.759 148.966h5.517v5.517h-5.517zM104.828 148.966h5.517v5.517h-5.517zM115.862 148.966h5.517v5.517h-5.517zM126.897 148.966h5.517v5.517h-5.517zM137.931 148.966h5.517v5.517h-5.517zM143.448 148.966h5.517v5.517h-5.517zM154.483 148.966H160v5.517h-5.517zM44.138 154.483h5.517V160h-5.517zM49.655 154.483h5.517V160h-5.517zM60.69 154.483h5.517V160H60.69zM71.724 154.483h5.517V160h-5.517zM77.241 154.483h5.517V160h-5.517zM93.793 154.483h5.517V160h-5.517zM99.31 154.483h5.517V160H99.31zM104.828 154.483h5.517V160h-5.517zM115.862 154.483h5.517V160h-5.517zM121.379 154.483h5.517V160h-5.517zM126.897 154.483h5.517V160h-5.517z"/><path fill="#fff" d="M132.414 154.483h5.517V160h-5.517zM137.931 154.483h5.517V160h-5.517zM143.448 154.483h5.517V160h-5.517z"/><path fill-rule="evenodd" clip-rule="evenodd" d="M5.793 0h32.828v38.621H0V0h5.793zm0 32.828h27.035V5.793H5.793v27.035zM127.172 0H160v38.621h-38.621V0h5.793zm0 32.828h27.035V5.793h-27.035v27.035zM5.793 121.379h32.828V160H0v-38.621h5.793zm0 32.828h27.035v-27.035H5.793v27.035z" fill="#fff"/><path fill="#fff" d="M11.034 11.034h16.552v16.552H11.034zM132.414 11.034h16.552v16.552h-16.552zM11.034 132.414h16.552v16.552H11.034z"/></svg>